# xmcd CD database file
#
# Track frame offsets:
#	150
#	22325
#	46317
#	67457
#	89657
#	119550
#	139832
#	167545
#	188970
#	212392
#
# Disc length: 3132 seconds
#
# Revision: 1
# Processed by: cddbd v1.5.2PL0 Copyright (c) Steve Scherf et al.
# Submitted via: CDex 1.70beta1
#
DISCID=9b0c3a0a
DTITLE=上田正樹 - Real Groove
DYEAR=1992
DGENRE=Blues
TTITLE0=Darling
TTITLE1=Gospel Town
TTITLE2=Roman
TTITLE3=In The Heart
TTITLE4=Song of Love
TTITLE5=Higher Self
TTITLE6=Wagamama
TTITLE7=Take Another Chance
TTITLE8=Spend The Night
TTITLE9=Merry-Go-Round
EXTD=YEAR: 1992
EXTT0=
EXTT1=
EXTT2=
EXTT3=
EXTT4=
EXTT5=
EXTT6=
EXTT7=
EXTT8=
EXTT9=
PLAYORDER=
